<?xml version="1.0" encoding="utf-8"?>
<!-- Generator: Adobe Illustrator 24.1.2, SVG Export Plug-In . SVG Version: 6.00 Build 0)  -->
<svg version="1.1" id="Layer_1" xmlns="http://www.w3.org/2000/svg" xmlns:xlink="http://www.w3.org/1999/xlink" x="0px" y="0px"
	 viewBox="0 0 50 30" style="enable-background:new 0 0 50 30;" xml:space="preserve">
<style type="text/css">
	.st0{fill-rule:evenodd;clip-rule:evenodd;fill:#2B2D30;}
	.st1{fill-rule:evenodd;clip-rule:evenodd;fill:#EE1E4B;}
	.st2{fill-rule:evenodd;clip-rule:evenodd;fill:#FFFFFF;}
</style>
<g>
	<desc>Created with Sketch.</desc>
	<g id="garage48_logo_1_">
		<g id="logo_1_">
			<path id="Garage_1_" class="st0" d="M7.62,14.9c0,0.51-0.08,0.98-0.23,1.4c-0.15,0.42-0.37,0.78-0.66,1.08
				c-0.28,0.3-0.63,0.53-1.03,0.69s-0.86,0.25-1.37,0.25s-0.97-0.08-1.4-0.25s-0.8-0.4-1.11-0.7s-0.56-0.68-0.73-1.12
				c-0.18-0.44-0.26-0.94-0.26-1.5c0-0.56,0.09-1.06,0.26-1.51c0.18-0.44,0.42-0.82,0.73-1.12s0.68-0.54,1.11-0.7
				s0.89-0.24,1.4-0.24c0.4,0,0.78,0.05,1.13,0.16c0.35,0.1,0.67,0.26,0.95,0.46c0.28,0.2,0.52,0.45,0.72,0.75
				c0.2,0.3,0.34,0.63,0.43,1.01l-1.48,0.25c-0.1-0.43-0.3-0.76-0.6-1s-0.69-0.36-1.16-0.36c-0.62,0-1.12,0.19-1.49,0.57
				c-0.37,0.38-0.55,0.96-0.55,1.72c0,0.38,0.05,0.72,0.15,1c0.1,0.29,0.24,0.53,0.42,0.72c0.18,0.19,0.39,0.33,0.64,0.43
				c0.25,0.1,0.53,0.14,0.84,0.14c0.42,0,0.8-0.11,1.11-0.32c0.32-0.21,0.53-0.56,0.63-1.03H4.33v-1.26h3.3V14.9z M10.39,13.33
				c0.34,0,0.63,0.06,0.87,0.17c0.24,0.11,0.43,0.25,0.55,0.42v-0.5h1.27v4.79h-1.27v-0.49c-0.12,0.16-0.31,0.3-0.55,0.42
				c-0.24,0.12-0.53,0.18-0.87,0.18s-0.65-0.06-0.93-0.18c-0.28-0.12-0.52-0.29-0.72-0.5c-0.2-0.22-0.36-0.48-0.48-0.79
				c-0.11-0.31-0.17-0.65-0.17-1.02c0-0.38,0.06-0.72,0.17-1.02c0.11-0.31,0.27-0.57,0.48-0.79c0.2-0.22,0.44-0.39,0.72-0.5
				C9.75,13.39,10.05,13.33,10.39,13.33z M10.62,14.49c-0.34,0-0.62,0.12-0.83,0.35c-0.22,0.23-0.32,0.56-0.32,0.99
				c0,0.43,0.11,0.75,0.32,0.98c0.22,0.23,0.49,0.34,0.83,0.34c0.33,0,0.6-0.11,0.81-0.32s0.31-0.51,0.31-0.9v-0.21
				c0-0.39-0.1-0.69-0.31-0.9C11.22,14.6,10.95,14.49,10.62,14.49z M16.26,14.68c-0.39,0-0.7,0.1-0.92,0.3
				c-0.23,0.2-0.34,0.47-0.34,0.8v2.43h-1.35v-4.79h1.3v0.55c0.1-0.16,0.26-0.3,0.46-0.42s0.48-0.18,0.85-0.18V14.68z M18.79,13.33
				c0.34,0,0.63,0.06,0.87,0.17c0.24,0.11,0.43,0.25,0.55,0.42v-0.5h1.27v4.79h-1.27v-0.49c-0.12,0.16-0.31,0.3-0.55,0.42
				c-0.24,0.12-0.53,0.18-0.87,0.18c-0.34,0-0.65-0.06-0.93-0.18c-0.28-0.12-0.52-0.29-0.72-0.5c-0.2-0.22-0.36-0.48-0.48-0.79
				c-0.11-0.31-0.17-0.65-0.17-1.02c0-0.38,0.06-0.72,0.17-1.02s0.27-0.57,0.48-0.79c0.2-0.22,0.44-0.39,0.72-0.5
				S18.45,13.33,18.79,13.33z M19.01,14.49c-0.34,0-0.62,0.12-0.83,0.35c-0.22,0.23-0.32,0.56-0.32,0.99c0,0.43,0.11,0.75,0.32,0.98
				c0.22,0.23,0.49,0.34,0.83,0.34c0.33,0,0.6-0.11,0.81-0.32c0.21-0.21,0.31-0.51,0.31-0.9v-0.21c0-0.39-0.1-0.69-0.31-0.9
				C19.61,14.6,19.34,14.49,19.01,14.49z M24.28,13.33c0.34,0,0.63,0.06,0.87,0.17c0.24,0.11,0.43,0.25,0.55,0.42v-0.5h1.27v4.96
				c0,0.35-0.06,0.66-0.17,0.94c-0.11,0.28-0.28,0.52-0.48,0.72c-0.21,0.2-0.46,0.35-0.76,0.46c-0.3,0.11-0.63,0.16-1,0.16
				c-0.38,0-0.71-0.04-0.99-0.13c-0.29-0.09-0.53-0.21-0.73-0.38c-0.2-0.16-0.36-0.36-0.48-0.58c-0.12-0.23-0.2-0.48-0.24-0.75
				l1.34-0.05c0.03,0.23,0.14,0.42,0.33,0.55s0.44,0.19,0.74,0.19c0.33,0,0.6-0.08,0.81-0.25s0.31-0.43,0.31-0.77v-0.69
				c-0.13,0.14-0.31,0.26-0.54,0.36c-0.23,0.1-0.5,0.15-0.81,0.15c-0.34,0-0.65-0.06-0.93-0.18c-0.28-0.12-0.52-0.29-0.72-0.5
				c-0.2-0.22-0.36-0.48-0.48-0.79c-0.11-0.31-0.17-0.65-0.17-1.02c0-0.38,0.06-0.72,0.17-1.02c0.11-0.31,0.27-0.57,0.48-0.78
				c0.2-0.22,0.44-0.38,0.72-0.5S23.94,13.33,24.28,13.33z M24.5,14.49c-0.34,0-0.62,0.12-0.83,0.35c-0.22,0.23-0.32,0.56-0.32,0.99
				c0,0.43,0.11,0.75,0.32,0.99c0.22,0.23,0.49,0.35,0.83,0.35c0.33,0,0.6-0.11,0.81-0.32c0.21-0.21,0.31-0.51,0.31-0.9v-0.22
				c0-0.39-0.1-0.69-0.31-0.9C25.1,14.6,24.83,14.49,24.5,14.49z M29.01,16.25c0.01,0.3,0.1,0.53,0.28,0.71
				c0.17,0.18,0.41,0.26,0.72,0.26c0.23,0,0.43-0.05,0.58-0.14c0.15-0.09,0.25-0.22,0.3-0.39l1.36,0.06
				c-0.04,0.23-0.13,0.44-0.26,0.63c-0.13,0.19-0.29,0.35-0.48,0.49c-0.19,0.14-0.42,0.25-0.66,0.32c-0.25,0.08-0.51,0.12-0.79,0.12
				c-0.36,0-0.7-0.06-1-0.17c-0.3-0.11-0.56-0.28-0.78-0.5c-0.22-0.22-0.38-0.48-0.5-0.79s-0.18-0.65-0.18-1.04
				c0-0.39,0.06-0.74,0.18-1.04c0.12-0.31,0.29-0.57,0.5-0.78c0.22-0.22,0.47-0.38,0.77-0.5c0.3-0.11,0.62-0.17,0.98-0.17
				c0.34,0,0.66,0.05,0.94,0.16c0.28,0.11,0.52,0.26,0.72,0.47c0.2,0.2,0.35,0.45,0.46,0.75c0.11,0.3,0.16,0.63,0.16,1v0.54H29.01z
				 M30,14.39c-0.29,0-0.52,0.08-0.7,0.25c-0.18,0.17-0.27,0.4-0.29,0.71h1.92c-0.01-0.3-0.09-0.53-0.24-0.7
				C30.53,14.47,30.3,14.39,30,14.39z"/>
			<rect id="Rectangle_1_" x="34.6" y="7.71" class="st1" width="14.57" height="14.57"/>
			<path id="_x34_8_1_" class="st2" d="M41.76,16.28v0.98h-0.79v1H39.8v-1h-3.01l4.18-5.34v4.36H41.76z M39.8,16.28v-1.36
				l-1.05,1.36H39.8z M44.34,11.94c0.29,0,0.56,0.04,0.8,0.12c0.25,0.08,0.46,0.2,0.64,0.35c0.18,0.15,0.32,0.33,0.42,0.55
				c0.1,0.22,0.15,0.46,0.15,0.74c0,0.28-0.05,0.52-0.16,0.72c-0.11,0.21-0.25,0.37-0.44,0.51c0.23,0.16,0.42,0.36,0.55,0.61
				c0.14,0.25,0.2,0.54,0.2,0.87c0,0.3-0.06,0.57-0.17,0.81s-0.26,0.45-0.46,0.61c-0.19,0.17-0.42,0.29-0.69,0.38
				c-0.26,0.09-0.55,0.13-0.86,0.13c-0.31,0-0.6-0.04-0.86-0.13c-0.26-0.09-0.49-0.22-0.69-0.38c-0.19-0.17-0.35-0.37-0.46-0.61
				c-0.11-0.24-0.17-0.51-0.17-0.81c0-0.33,0.07-0.62,0.2-0.87s0.32-0.45,0.55-0.6c-0.18-0.13-0.33-0.3-0.43-0.51
				c-0.11-0.21-0.16-0.45-0.16-0.73c0-0.27,0.05-0.52,0.15-0.74s0.24-0.4,0.42-0.55c0.18-0.15,0.39-0.27,0.64-0.35
				C43.78,11.98,44.05,11.94,44.34,11.94z M44.34,13.08c-0.21,0-0.38,0.06-0.52,0.18c-0.14,0.12-0.21,0.3-0.21,0.52
				c0,0.21,0.07,0.38,0.21,0.5c0.14,0.12,0.31,0.18,0.52,0.18c0.21,0,0.39-0.06,0.52-0.18c0.14-0.12,0.21-0.29,0.21-0.5
				c0-0.23-0.07-0.4-0.21-0.52C44.73,13.15,44.55,13.08,44.34,13.08z M44.34,15.51c-0.25,0-0.46,0.07-0.63,0.22
				c-0.17,0.15-0.26,0.36-0.26,0.63c0,0.27,0.09,0.48,0.26,0.63s0.38,0.22,0.63,0.22c0.26,0,0.47-0.07,0.64-0.22
				c0.17-0.15,0.25-0.36,0.25-0.63c0-0.27-0.08-0.48-0.25-0.63C44.81,15.58,44.6,15.51,44.34,15.51z"/>
		</g>
	</g>
</g>
</svg>
