<?xml version="1.0" encoding="utf-8"?>
<!-- Generator: Adobe Illustrator 24.1.2, SVG Export Plug-In . SVG Version: 6.00 Build 0)  -->
<svg version="1.1" id="Layer_1" xmlns="http://www.w3.org/2000/svg" xmlns:xlink="http://www.w3.org/1999/xlink" x="0px" y="0px"
	 viewBox="0 0 250 150" style="enable-background:new 0 0 250 150;" xml:space="preserve">
<style type="text/css">
	.st0{fill-rule:evenodd;clip-rule:evenodd;fill:#2B2D30;}
	.st1{fill-rule:evenodd;clip-rule:evenodd;fill:#EE1E4B;}
	.st2{fill-rule:evenodd;clip-rule:evenodd;fill:#FFFFFF;}
</style>
<g>
	<desc>Created with Sketch.</desc>
	<g id="garage48_logo_1_">
		<g id="logo_1_">
			<path id="Garage_1_" class="st0" d="M42.88,76.05c0,2.44-0.37,4.66-1.1,6.66c-0.73,2-1.77,3.71-3.12,5.14
				c-1.35,1.43-2.99,2.53-4.92,3.31s-4.1,1.17-6.51,1.17s-4.62-0.39-6.66-1.17s-3.8-1.9-5.3-3.35s-2.66-3.23-3.5-5.34
				s-1.25-4.48-1.25-7.12c0-2.68,0.42-5.06,1.25-7.17c0.84-2.1,1.99-3.88,3.47-5.34s3.24-2.56,5.28-3.33
				c2.04-0.76,4.26-1.15,6.66-1.15c1.91,0,3.69,0.25,5.36,0.75c1.67,0.5,3.18,1.23,4.53,2.2c1.35,0.97,2.49,2.16,3.43,3.57
				c0.94,1.41,1.63,3.01,2.07,4.81l-7.03,1.19c-0.47-2.03-1.42-3.62-2.86-4.76c-1.44-1.15-3.28-1.72-5.54-1.72
				c-2.96,0-5.32,0.91-7.08,2.73c-1.76,1.82-2.64,4.56-2.64,8.2c0,1.82,0.23,3.42,0.7,4.78c0.47,1.37,1.13,2.51,1.98,3.42
				s1.87,1.59,3.06,2.05c1.19,0.46,2.51,0.68,3.98,0.68c2.02,0,3.79-0.51,5.3-1.52c1.51-1.01,2.51-2.65,3.01-4.92h-8.27v-6h15.7
				V76.05z M56.07,68.6c1.61,0,3,0.27,4.15,0.82s2.03,1.21,2.62,2.01v-2.38h6.02v22.8h-6.02V89.5c-0.59,0.76-1.46,1.43-2.62,1.98
				c-1.16,0.56-2.54,0.84-4.15,0.84c-1.61,0-3.08-0.28-4.42-0.84c-1.33-0.56-2.48-1.36-3.45-2.4s-1.72-2.29-2.26-3.75
				c-0.54-1.46-0.81-3.08-0.81-4.87c0-1.79,0.27-3.42,0.81-4.87c0.54-1.46,1.3-2.7,2.26-3.75c0.97-1.04,2.12-1.84,3.45-2.4
				C52.99,68.88,54.46,68.6,56.07,68.6z M57.13,74.11c-1.61,0-2.93,0.55-3.96,1.65c-1.03,1.1-1.54,2.67-1.54,4.7
				s0.51,3.59,1.54,4.67c1.03,1.09,2.34,1.63,3.96,1.63c1.58,0,2.87-0.51,3.87-1.52s1.49-2.45,1.49-4.3v-1.01
				c0-1.85-0.5-3.29-1.49-4.3C60,74.62,58.71,74.11,57.13,74.11z M84,75.03c-1.85,0-3.31,0.48-4.4,1.43
				c-1.08,0.96-1.63,2.23-1.63,3.81v11.55h-6.42v-22.8h6.2v2.6c0.5-0.76,1.22-1.43,2.18-1.98s2.31-0.84,4.07-0.84V75.03z
				 M96.04,68.6c1.61,0,3,0.27,4.15,0.82c1.16,0.54,2.03,1.21,2.62,2.01v-2.38h6.02v22.8h-6.02V89.5c-0.59,0.76-1.46,1.43-2.62,1.98
				c-1.16,0.56-2.54,0.84-4.15,0.84c-1.61,0-3.08-0.28-4.42-0.84c-1.33-0.56-2.48-1.36-3.45-2.4c-0.97-1.04-1.72-2.29-2.26-3.75
				c-0.54-1.46-0.81-3.08-0.81-4.87c0-1.79,0.27-3.42,0.81-4.87c0.54-1.46,1.3-2.7,2.26-3.75c0.97-1.04,2.12-1.84,3.45-2.4
				C92.96,68.88,94.43,68.6,96.04,68.6z M97.1,74.11c-1.61,0-2.93,0.55-3.96,1.65c-1.03,1.1-1.54,2.67-1.54,4.7s0.51,3.59,1.54,4.67
				c1.03,1.09,2.34,1.63,3.96,1.63c1.58,0,2.87-0.51,3.87-1.52s1.49-2.45,1.49-4.3v-1.01c0-1.85-0.5-3.29-1.49-4.3
				C99.97,74.62,98.68,74.11,97.1,74.11z M122.18,68.6c1.61,0,3,0.27,4.15,0.82c1.16,0.54,2.03,1.21,2.62,2.01v-2.38h6.02v23.64
				c0,1.65-0.27,3.14-0.81,4.48c-0.54,1.34-1.31,2.48-2.31,3.42s-2.2,1.67-3.61,2.18c-1.41,0.51-2.99,0.77-4.75,0.77
				c-1.79,0-3.36-0.21-4.73-0.64c-1.36-0.43-2.53-1.02-3.5-1.79c-0.97-0.76-1.74-1.69-2.31-2.78c-0.57-1.09-0.96-2.28-1.17-3.57
				l6.37-0.22c0.15,1.12,0.67,1.98,1.56,2.6c0.89,0.62,2.07,0.93,3.54,0.93c1.58,0,2.87-0.4,3.85-1.21
				c0.98-0.81,1.47-2.04,1.47-3.68v-3.26c-0.62,0.68-1.47,1.25-2.55,1.72c-1.08,0.47-2.37,0.71-3.87,0.71
				c-1.61,0-3.08-0.28-4.42-0.84c-1.33-0.56-2.48-1.36-3.45-2.4c-0.97-1.04-1.72-2.29-2.26-3.75c-0.54-1.46-0.81-3.08-0.81-4.87
				c0-1.79,0.27-3.42,0.81-4.87c0.54-1.46,1.3-2.7,2.26-3.73c0.97-1.03,2.12-1.83,3.45-2.4C119.1,68.88,120.57,68.6,122.18,68.6z
				 M123.24,74.11c-1.61,0-2.93,0.55-3.96,1.65c-1.03,1.1-1.54,2.67-1.54,4.7s0.51,3.59,1.54,4.7c1.03,1.1,2.34,1.65,3.96,1.65
				c1.58,0,2.87-0.51,3.87-1.52c1-1.01,1.49-2.45,1.49-4.3v-1.06c0-1.85-0.5-3.29-1.49-4.3C126.11,74.62,124.82,74.11,123.24,74.11z
				 M144.69,82.49c0.06,1.41,0.5,2.54,1.32,3.37c0.82,0.84,1.96,1.26,3.43,1.26c1.11,0,2.03-0.22,2.75-0.66
				c0.72-0.44,1.19-1.06,1.43-1.85l6.46,0.31c-0.21,1.09-0.62,2.08-1.23,2.98c-0.62,0.9-1.38,1.68-2.31,2.34
				c-0.92,0.66-1.98,1.18-3.17,1.54c-1.19,0.37-2.44,0.55-3.76,0.55c-1.73,0-3.32-0.27-4.77-0.82s-2.69-1.33-3.72-2.36
				c-1.03-1.03-1.82-2.28-2.4-3.75c-0.57-1.47-0.86-3.12-0.86-4.94c0-1.85,0.29-3.51,0.86-4.96c0.57-1.46,1.37-2.7,2.4-3.73
				c1.03-1.03,2.24-1.82,3.65-2.36s2.96-0.82,4.66-0.82c1.64,0,3.13,0.26,4.46,0.77c1.33,0.51,2.48,1.26,3.43,2.23
				c0.95,0.97,1.69,2.16,2.2,3.57c0.51,1.41,0.77,3,0.77,4.76v2.56H144.69z M149.4,73.62c-1.38,0-2.48,0.4-3.32,1.19
				c-0.84,0.79-1.3,1.93-1.38,3.4h9.14c-0.06-1.41-0.45-2.53-1.17-3.35C151.96,74.04,150.86,73.62,149.4,73.62z"/>
			<rect id="Rectangle_1_" x="171.32" y="41.85" class="st1" width="69.38" height="69.38"/>
			<path id="_x34_8_1_" class="st2" d="M205.4,82.64v4.68h-3.77v4.76h-5.55v-4.76h-14.35l19.9-25.45v20.77H205.4z M196.09,82.64
				v-6.46l-4.99,6.46H196.09z M217.66,61.99c1.37,0,2.65,0.19,3.82,0.57c1.18,0.38,2.19,0.93,3.05,1.64
				c0.86,0.71,1.53,1.59,2.02,2.64c0.49,1.04,0.73,2.21,0.73,3.51c0,1.32-0.26,2.47-0.77,3.45c-0.52,0.98-1.21,1.78-2.08,2.42
				c1.11,0.74,1.99,1.7,2.64,2.89s0.97,2.58,0.97,4.16c0,1.43-0.26,2.72-0.79,3.86c-0.53,1.15-1.26,2.12-2.18,2.91
				c-0.92,0.79-2.01,1.4-3.27,1.82c-1.26,0.42-2.62,0.63-4.1,0.63s-2.85-0.21-4.1-0.63c-1.26-0.42-2.35-1.03-3.27-1.82
				c-0.92-0.79-1.65-1.76-2.18-2.91c-0.53-1.15-0.79-2.44-0.79-3.86c0-1.59,0.32-2.97,0.95-4.14c0.63-1.18,1.51-2.13,2.62-2.87
				c-0.87-0.63-1.56-1.45-2.06-2.44c-0.5-0.99-0.75-2.15-0.75-3.47c0-1.29,0.24-2.46,0.71-3.51c0.48-1.04,1.14-1.92,2-2.64
				c0.86-0.71,1.87-1.26,3.03-1.64C215.02,62.18,216.29,61.99,217.66,61.99z M217.7,67.42c-0.98,0-1.8,0.29-2.48,0.87
				c-0.67,0.58-1.01,1.41-1.01,2.5c0,1,0.34,1.8,1.01,2.38c0.67,0.58,1.5,0.87,2.48,0.87c1,0,1.84-0.29,2.5-0.87
				c0.66-0.58,0.99-1.37,0.99-2.38c0-1.08-0.33-1.92-0.99-2.5C219.54,67.71,218.71,67.42,217.7,67.42z M217.7,78.95
				c-1.19,0-2.19,0.35-3.01,1.05s-1.23,1.7-1.23,2.99s0.41,2.3,1.23,3.01c0.82,0.71,1.82,1.07,3.01,1.07c1.22,0,2.23-0.36,3.03-1.07
				c0.81-0.71,1.21-1.72,1.21-3.01s-0.4-2.29-1.21-2.99S218.92,78.95,217.7,78.95z"/>
		</g>
	</g>
</g>
</svg>
